<?xml version="1.0" encoding="UTF-8"?>
<svg id="Layer_1" xmlns="http://www.w3.org/2000/svg" xmlns:xlink="http://www.w3.org/1999/xlink" baseProfile="tiny" version="1.2" viewBox="0 0 1024 1024">
  <!-- Generator: Adobe Illustrator 29.3.1, SVG Export Plug-In . SVG Version: 2.1.0 Build 151)  -->
  <defs>
    <linearGradient id="linear-gradient" x1="512" y1="857.9" x2="512" y2="166.1" gradientUnits="userSpaceOnUse">
      <stop offset="0" stop-color="#f16d22"/>
      <stop offset="1" stop-color="#f5bd17"/>
    </linearGradient>
  </defs>
  <rect width="1024" height="1024" rx="141.7" ry="141.7" fill="#304b5a"/>
  <path d="M814.7,818.9h-21.5v-433.3c0-7.8-6.4-14.2-14.2-14.2h-168.4c-7.8,0-14.2,6.4-14.2,14.2v433.3h-20.2v-337.5c0-7.8-6.4-14.2-14.2-14.2h-135.2c-7.8,0-14.2,6.4-14.2,14.2v337.5h-20.2v-236.8c0-7.8-6.4-14.2-14.2-14.2h-127.5c-7.8,0-14.2,6.4-14.2,14.2v236.8h-27.1c-10.4,0-19,8.5-19,19v1c0,10.4,8.5,19,19,19h41.3s0,0,0,0h127.5s0,0,0,0h48.6s0,0,0,0h135.2s0,0,0,0h252.7c10.4,0,19-8.5,19-19v-1c0-10.4-8.5-19-19-19ZM631.4,406.4h126.8v412.5h-126.8v-412.5ZM447.6,502.2h93.6v316.7h-93.6v-316.7ZM271.5,603h85.9v215.9h-85.9v-215.9ZM561.1,223.5c0-12,9.7-21.7,21.7-21.7s21.7,9.7,21.7,21.7-2.4,11.3-6.3,15.3l49.3,33.1,35.4-64.9c-6.7-3.7-11.3-10.9-11.3-19.1,0-12,9.7-21.7,21.7-21.7s21.7,9.7,21.7,21.7-4.6,15.4-11.3,19.1l35.9,65.4,51-34.1c-3.6-3.9-5.8-9.1-5.8-14.8,0-12,9.7-21.7,21.7-21.7s21.7,9.7,21.7,21.7-8.8,20.7-19.9,21.7l-17.5,87.1c-1,6.7-3.7,9.6-7.6,9.3h-178.9c-5.4.7-8.5-2.6-9.5-9.3l-15.6-87.2c-10.4-1.6-18.3-10.6-18.3-21.5Z" fill="url(#linear-gradient)"/>
</svg>